<svg width="84" height="84" viewBox="0 0 84 84" fill="none" xmlns="http://www.w3.org/2000/svg">
<path d="M58.2056 48.7948C58.2056 58.7399 51.945 65.0004 42 65.0004C32.055 65.0004 25.7944 58.7399 25.7944 48.7948C25.7944 38.1228 37.4118 23.7156 40.9748 19.5483C41.1015 19.4002 41.2589 19.2814 41.4359 19.1999C41.613 19.1184 41.8056 19.0762 42.0006 19.0762C42.1955 19.0762 42.3881 19.1184 42.5652 19.1999C42.7422 19.2814 42.8996 19.4002 43.0263 19.5483C46.5882 23.7156 58.2056 38.1228 58.2056 48.7948Z" stroke="#43C5FF" stroke-width="5" stroke-miterlimit="10"/>
<path d="M49.2024 47.8945C49.2024 50.0435 48.3487 52.1045 46.8291 53.6241C45.3096 55.1436 43.2486 55.9973 41.0996 55.9973" stroke="#43C5FF" stroke-width="5" stroke-linecap="round" stroke-linejoin="round"/>
</svg>
