<svg width="84" height="84" viewBox="0 0 84 84" fill="none" xmlns="http://www.w3.org/2000/svg">
<path d="M42.5 55.2C46.0795 55.2 49.1226 53.9172 51.6293 51.3515C54.1359 48.7858 55.3883 45.6686 55.3864 42C55.3864 38.3333 54.134 35.2172 51.6293 32.6515C49.1245 30.0858 46.0815 28.802 42.5 28.8C38.9205 28.8 35.8783 30.0838 33.3736 32.6515C30.8689 35.2191 29.6155 38.3353 29.6136 42C29.6136 45.6667 30.867 48.7838 33.3736 51.3515C35.8802 53.9191 38.9224 55.202 42.5 55.2ZM42.5 49.92C40.3523 49.92 38.5272 49.1495 37.0247 47.6085C35.5223 46.0676 34.7701 44.198 34.7682 42C34.7682 39.8 35.5204 37.9305 37.0247 36.3915C38.5291 34.8524 40.3542 34.082 42.5 34.08C44.6477 34.08 46.4738 34.8505 47.9781 36.3915C49.4825 37.9324 50.2337 39.802 50.2318 42C50.2318 44.2 49.4806 46.0705 47.9781 47.6115C46.4757 49.1524 44.6496 49.922 42.5 49.92ZM42.5 64C35.5318 64 29.1841 62.0083 23.4568 58.0248C17.7295 54.0413 13.5773 48.6997 11 42C13.5773 35.3022 17.7295 29.9616 23.4568 25.9781C29.1841 21.9947 35.5318 20.002 42.5 20C49.4682 20 55.8159 21.9927 61.5432 25.9781C67.2705 29.9636 71.4227 35.3042 74 42C71.4227 48.6978 67.2705 54.0394 61.5432 58.0248C55.8159 62.0102 49.4682 64.002 42.5 64ZM42.5 58.1333C47.8932 58.1333 52.8454 56.6794 57.3565 53.7715C61.8677 50.8636 65.3155 46.9397 67.7 42C65.3136 37.0622 61.8649 33.1394 57.3537 30.2315C52.8425 27.3236 47.8913 25.8686 42.5 25.8667C37.1068 25.8667 32.1556 27.3216 27.6463 30.2315C23.137 33.1413 19.6883 37.0642 17.3 42C19.6864 46.9378 23.1351 50.8616 27.6463 53.7715C32.1575 56.6813 37.1087 58.1353 42.5 58.1333Z" fill="#FFE143"/>
</svg>
