<svg width="84" height="84" viewBox="0 0 84 84" fill="none" xmlns="http://www.w3.org/2000/svg">
<path d="M66.9493 44.9549C69.1898 44.4966 71.2887 43.5169 73.0738 42.0964C74.8589 40.6758 76.2792 38.855 77.218 36.7833C78.1567 34.7117 78.5873 32.4484 78.4742 30.1794C78.3611 27.9104 77.7076 25.7004 76.5673 23.731C75.4271 21.7615 73.8327 20.0889 71.915 18.8504C69.9974 17.6119 67.8113 16.8429 65.5362 16.6066C63.2612 16.3703 60.9622 16.6734 58.828 17.491C56.6939 18.3086 54.7855 19.6175 53.2596 21.3099C52.6306 22.0209 52.3096 22.9497 52.3666 23.8944C52.4236 24.8392 52.8539 25.7233 53.5638 26.3546C54.2738 26.9859 55.206 27.3132 56.1577 27.2654C57.1094 27.2176 58.0037 26.7985 58.6459 26.0993C59.4055 25.2515 60.3573 24.5954 61.4228 24.1852C62.4882 23.7751 63.6367 23.6226 64.7732 23.7405C66.6201 23.9246 68.3251 24.8071 69.5348 26.2054C70.7446 27.6037 71.3665 29.4105 71.2717 31.2516C71.1769 33.0928 70.3727 34.8272 69.0257 36.0956C67.6786 37.3641 65.892 38.0693 64.0357 38.0654H9.81171C8.85297 38.0654 7.9335 38.4436 7.25557 39.1169C6.57764 39.7902 6.19678 40.7034 6.19678 41.6556C6.19678 42.6077 6.57764 43.5209 7.25557 44.1942C7.9335 44.8675 8.85297 45.2458 9.81171 45.2458H64.0357C65.0334 45.2458 66.0095 45.1452 66.9493 44.9549ZM17.0416 34.4752H36.9816C38.4863 34.465 39.9647 34.0819 41.2826 33.3605C42.6005 32.6391 43.7162 31.6022 44.5283 30.3441C45.3405 29.0859 45.8235 27.6463 45.9334 26.1558C46.0434 24.6652 45.7768 23.171 45.158 21.8088C44.5391 20.4465 43.5876 19.2592 42.3896 18.3548C41.1917 17.4503 39.7853 16.8572 38.2981 16.6293C36.8109 16.4015 35.2899 16.5461 33.8732 17.05C32.4565 17.5539 31.1889 18.4011 30.1855 19.5148C29.546 20.2247 29.2166 21.1578 29.2699 22.1088C29.3231 23.0598 29.7545 23.9509 30.4692 24.586C31.184 25.2211 32.1235 25.5482 33.0811 25.4953C34.0386 25.4425 34.9359 25.014 35.5753 24.3042C35.7762 24.0807 36.0301 23.9108 36.314 23.8098C36.5979 23.7088 36.9027 23.6799 37.2007 23.7258C37.4987 23.7717 37.7804 23.891 38.0201 24.0727C38.2599 24.2544 38.45 24.4927 38.5733 24.7661C38.6965 25.0394 38.7489 25.339 38.7257 25.6377C38.7026 25.9363 38.6045 26.2244 38.4406 26.4757C38.2766 26.7271 38.0519 26.9337 37.787 27.0768C37.522 27.2198 37.2253 27.2948 36.9237 27.2948H17.0416C16.0828 27.2948 15.1634 27.673 14.4854 28.3463C13.8075 29.0196 13.4266 29.9328 13.4266 30.885C13.4266 31.8372 13.8075 32.7503 14.4854 33.4236C15.1634 34.0969 16.0828 34.4752 17.0416 34.4752ZM58.6133 48.8359H27.8864C26.9276 48.8359 26.0082 49.2142 25.3302 49.8875C24.6523 50.5608 24.2714 51.474 24.2714 52.4261C24.2714 53.3783 24.6523 54.2915 25.3302 54.9648C26.0082 55.6381 26.9276 56.0163 27.8864 56.0163H58.6133C58.9149 56.0163 59.2116 56.0913 59.4766 56.2344C59.7415 56.3774 59.9662 56.584 60.1302 56.8354C60.2941 57.0867 60.3922 57.3748 60.4153 57.6735C60.4385 57.9721 60.3861 58.2717 60.2629 58.545C60.1396 58.8184 59.9495 59.0568 59.7097 59.2385C59.47 59.4202 59.1883 59.5394 58.8903 59.5853C58.5923 59.6312 58.2875 59.6024 58.0036 59.5013C57.7197 59.4003 57.4658 59.2304 57.2649 59.007C56.9497 58.6507 56.5666 58.36 56.1376 58.1516C55.7086 57.9433 55.2423 57.8214 54.7656 57.793C54.2889 57.7647 53.8113 57.8304 53.3603 57.9864C52.9093 58.1424 52.494 58.3857 52.1382 58.702C51.7824 59.0184 51.4933 59.4016 51.2875 59.8296C51.0817 60.2575 50.9633 60.7217 50.9391 61.1954C50.915 61.6691 50.9856 62.1428 51.1469 62.5892C51.3081 63.0356 51.5569 63.4459 51.8787 63.7963C52.8821 64.91 54.1497 65.7573 55.5664 66.2612C56.9831 66.7651 58.5041 66.9096 59.9913 66.6818C61.4785 66.4539 62.8849 65.8608 64.0828 64.9564C65.2808 64.0519 66.2324 62.8646 66.8512 61.5024C67.4701 60.1401 67.7366 58.6459 67.6266 57.1554C67.5167 55.6649 67.0337 54.2252 66.2215 52.967C65.4094 51.7089 64.2937 50.6721 62.9758 49.9507C61.658 49.2292 60.1795 48.8461 58.6748 48.8359H58.6133Z" fill="#FF63D6"/>
</svg>
